:FULLY-SPECIFIED
:FORCE-ALL-JOINTS-BE-3DOF
:DEGREES
204
root 4.81368 14.9991 -25.4233 7.17894 -3.00183 6.04265
lfemur 9.4763 -2.27638 0.672629
ltibia 3.81458 0 0
lfoot -37.3372 -12.5362 0
ltoes 48.8879 0 0
rfemur -31.9057 -20.2509 -9.19291
rtibia 50.765 0 0
rfoot -27.5532 20.4005 0
rtoes 61.4937 0 0
lowerback -3.66276 -1.60729 -0.362497
upperback -0.592475 -2.03163 -7.96748
thorax 1.15915 -1.02101 -8.23669
lowerneck -11.826 0.888377 7.04456
upperneck 3.80434 -0.043147 2.38734
head 3.31269 0.20419 -0.4623
lclavicle -2.94169e-14 -3.92226e-14 0
lhumerus -59.0848 -46.826 115.481
lradius 54.2084 0 0
lwrist 27.8382 0 0
lhand 40.3323 31.4735 0
lfingers 7.12502 0 0
lthumb 62.6761 42.1467 0
rclavicle -2.94169e-14 -3.92226e-14 0
rhumerus -0.789692 -9.88791 -5.21432
rradius 55.8064 0 0
rwrist -27.635 0 0
rhand -16.0227 -49.4214 0
rfingers 7.12502 0 0
rthumb 10.1432 -494.181 0
205
root 4.81532 15.0053 -25.4409 7.20882 -2.55397 5.91354
lfemur 8.94133 -2.15792 0.712142
ltibia 4.22682 0 0
lfoot -37.0403 -12.1584 0
ltoes 48.2448 0 0
rfemur -32.0018 -20.3541 -8.92846
rtibia 51.0298 0 0
rfoot -27.2185 19.8588 0
rtoes 61.1227 0 0
lowerback -3.32567 -1.47892 -0.408305
upperback -0.656467 -1.8783 -7.8837
thorax 0.92942 -0.948514 -8.09943
lowerneck -11.6317 0.676081 7.07013
upperneck 3.85713 -0.313171 2.35711
head 3.29706 0.0696741 -0.492895
lclavicle -1.63791e-14 -2.71238e-14 0
lhumerus -59.2936 -47.0178 115.969
lradius 54.1192 0 0
lwrist 26.6389 0 0
lhand 40.8085 30.6685 0
lfingers 7.12502 0 0
lthumb 63.0736 40.8506 0
rclavicle -1.63791e-14 -2.71238e-14 0
rhumerus -1.07224 -18.665 -8.58349
rradius 54.7839 0 0
rwrist -25.5635 0 0
rhand -27.0578 -55.6457 0
rfingers 7.12502 0 0
rthumb -0.492752 -539.13 0
206
root 4.82334 15.0218 -25.4596 7.23397 -1.88541 5.72056
lfemur 8.08521 -1.98429 0.793946
ltibia 5.0087 0 0
lfoot -36.445 -11.8643 0
ltoes 47.4481 0 0
rfemur -31.9506 -20.3232 -8.59787
rtibia 51.2096 0 0
rfoot -26.81 18.9504 0
rtoes 60.5787 0 0
lowerback -2.96198 -1.38516 -0.458588
upperback -0.706185 -1.77152 -7.74713
thorax 0.69639 -0.898949 -7.90341
lowerneck -11.4298 0.434894 7.02624
upperneck 3.87004 -0.610928 2.34594
head 3.26868 -0.0801771 -0.506618
lclavicle -3.67195e-15 -1.49995e-14 0
lhumerus -59.4318 -47.0943 116.41
lradius 54.0648 0 0
lwrist 25.4928 0 0
lhand 41.0324 29.8876 0
lfingers 7.12502 0 0
lthumb 63.2573 39.8177 0
rclavicle -3.67195e-15 -1.49995e-14 0
rhumerus -2.05897 -26.3549 -12.5712
rradius 54.8318 0 0
rwrist -23.3924 0 0
rhand -37.1743 -60.8565 0
rfingers 7.12502 0 0
rthumb -10.243 -584.844 0
207
root 4.81688 15.0289 -25.4771 7.29181 -1.48238 5.54624
lfemur 7.42444 -2.06268 0.955612
ltibia 5.63723 0 0
lfoot -36.0728 -11.5447 0
ltoes 47.123 0 0
rfemur -32.0244 -20.3989 -8.27833
rtibia 51.3881 0 0
rfoot -26.6556 18.5203 0
rtoes 60.315 0 0
lowerback -2.65354 -1.35364 -0.505119
upperback -0.734526 -1.74455 -7.60297
thorax 0.506301 -0.888343 -7.70642
lowerneck -11.2699 0.356179 6.98882
upperneck 3.84121 -0.69289 2.30181
head 3.23254 -0.125298 -0.519254
lclavicle 3.8763e-15 -6.36111e-15 0
lhumerus -59.5572 -47.0428 116.716
lradius 54.1203 0 0
lwrist 24.8729 0 0
lhand 40.8051 29.327 0
lfingers 7.12502 0 0
lthumb 63.0592 39.4365 0
rclavicle 3.8763e-15 -6.36111e-15 0
rhumerus -2.88701 -31.384 -14.9553
rradius 55.764 0 0
rwrist -22.019 0 0
rhand -44.3783 -64.1768 0
rfingers 7.12502 0 0
rthumb -17.1853 -626.563 0
